<?xml version="1.0"?>
<svg xmlns="http://www.w3.org/2000/svg" xmlns:xlink="http://www.w3.org/1999/xlink" xmlns:svgjs="http://svgjs.com/svgjs" version="1.1" width="512" height="512" x="0" y="0" viewBox="0 0 56 56" style="enable-background:new 0 0 512 512" xml:space="preserve" class=""><g><g xmlns="http://www.w3.org/2000/svg" id="Page-1" fill="none" fill-rule="evenodd"><g id="025---Fake-Qualifications" fill="rgb(0,0,0)" fill-rule="nonzero"><path id="Shape" d="m15 19h10v-3.26c-1.6306737-.4476483-3.3095679-.6961247-5-.74-1.6904747.0433842-3.3694278.2918692-5 .74v.68c.0100099.0528637.0100099.1071363 0 .16z" fill="#062346" data-original="#000000" style="" class=""/><path id="Shape" d="m29 33c-.5522847 0-1 .4477153-1 1v1c0 .5522847.4477153 1 1 1h10.18c-.36324-1.0345082-.1331863-2.184777.6-3z" fill="#062346" data-original="#000000" style="" class=""/><path id="Shape" d="m14 24c0 3.86 2.69 7 6 7s6-3.14 6-7c-.0004556-1.0287796-.2008367-2.0476663-.59-3h-10.82c-.3891633.9523337-.5895444 1.9712204-.59 3z" fill="#062346" data-original="#000000" style="" class=""/><path id="Shape" d="m37.44 3.48c-.3521866-.07173086-.7105856-.10857562-1.07-.11.0014244.35941437.0382691.7178134.11 1.07.2101269.73868068.2101269 1.52131932 0 2.26-.3599397.66036952-.896651 1.2074687-1.55 1.58-.3450186.20701564-.6554534.46683608-.92.77.08.08.6.45.92.67.6504101.3718826 1.1864862.9148759 1.55 1.57.2104383.7420353.2104383 1.5279647 0 2.27-.0722525.3521067-.1091026.7105578-.11 1.07.0732465.0050476.1467535.0050476.22 0h.06c.25 0 .57-.07.79-.11.4256268-.0806686.856977-.1274818 1.29-.14.3414479-.0122623.6817855.0455951 1 .17.6551241.3635138 1.1981174.8995899 1.57 1.55.1958631.3273517.4309331.6295845.7.9.2754418-.2661533.5172426-.5650459.72-.89.3718826-.6504101.9148759-1.1864862 1.57-1.55.7420353-.2104383 1.5279647-.2104383 2.27 0 .22 0 .54.09.79.11h.06c.0732465.0050476.1467535.0050476.22 0-.0008974-.3594422-.0377475-.7178933-.11-1.07-.2104383-.7420353-.2104383-1.5279647 0-2.27.3635138-.6551241.8995899-1.1981174 1.55-1.57.3478493-.20312208.6616669-.45957523.93-.76-.08-.08-.6-.45-.92-.67-.6504101-.37188261-1.1864862-.91487585-1.55-1.57-.2104383-.7420353-.2104383-1.5279647 0-2.27.0717309-.3521866.1085756-.71058563.11-1.07-.3594422.00089736-.7178933.03774747-1.07.11-.741354.21528169-1.528646.21528169-2.27 0-.6730272-.37934873-1.2217968-.9454844-1.58-1.63-.1923206-.33521971-.4351731-.63878529-.72-.9-.08.07-.45.6-.67.91-.3676834.65362793-.9117121 1.19072628-1.57 1.55-.7550146.23161137-1.5611046.23856042-2.32.02zm4.56 1.52c2.209139 0 4 1.790861 4 4s-1.790861 4-4 4-4-1.790861-4-4 1.790861-4 4-4z" fill="#062346" data-original="#000000" style="" class=""/><circle id="Oval" cx="42" cy="9" r="2" fill="#062346" data-original="#000000" style="" class=""/><path id="Shape" d="m49.66 27.57c-.2358915-.003145-.4643415.0825238-.64.24l-7.66 6.42c-.2058877.1695828-.3354927.4143922-.36.68-.023172.2642056.0595616.5267949.23.73.1695828.2058877.4143922.3354927.68.36.2642056.023172.5267949-.0595616.73-.23l7.66-6.43c.2045071-.1695482.3331478-.4135008.3575369-.6780285s-.057478-.5278889-.2275369-.7319715c-.1713382-.2021579-.4159121-.3280416-.68-.35z" fill="#062346" data-original="#000000" style="" class=""/><path id="Shape" d="m46.71 21.14 1.71.43-1.83-5-.37-.06c-.3787674-.0955307-.7704715-.1292983-1.16-.1-.2724572.2487083-.5081513.5349083-.7.85-.3494486.5684441-.8124355 1.0586654-1.36 1.44v4.3l2-1.52c.4880052-.3688887 1.1179987-.4941505 1.71-.34z" fill="#062346" data-original="#000000" style="" class=""/><path id="Shape" d="m41.69 40.72c.5849699-.5084282 1.4110235-.6331156 2.12-.32l8.72 3.85 1.25-6.25h-23.56l2.44 12.19c.0922491.4771082.5141358.8188364 1 .81h9.74l-2.32-8.23c-.2098164-.7437963.0276725-1.5419148.61-2.05z" fill="#062346" data-original="#000000" style="" class=""/><path id="Shape" d="m24 43h-21c-.55228475 0-1-.4477153-1-1v-39c0-.55228475.44771525-1 1-1h31.88v-.07c.77-.77 1.92-.58 2.85-.42.379533.09089072.7705113.12459574 1.16.1-.1803157-.91007721-.9628307-1.57666398-1.89-1.61h-35c-1.1045695 0-2 .8954305-2 2v41c0 1.1045695.8954305 2 2 2h27.58l-.4-2z" fill="#062346" data-original="#000000" style="" class=""/><path id="Shape" d="m26.91 15.19 4.09-1.38-11-5.81-11 5.82 4.09 1.36c.1845614-.6548649.6893813-1.1709867 1.34-1.37 1.8157236-.5007449 3.6868597-.7728491 5.57-.81 1.8835616.0404106 3.7547052.3158752 5.57.82.6506187.1990133 1.1554386.7151351 1.34 1.37z" fill="#062346" data-original="#000000" style="" class=""/><path id="Shape" d="m51.42 49c.0244264-.2707286.1580121-.5198478.37-.69l1.76-1.41-10.55-4.67 3 10.68 2.64-2.11c.1759393-.1411606.3944358-.2186916.62-.22.2872272.0003637.5604302.1242157.75.34l4.5 5.08 1.41-1.41-4.26-4.86c-.1740321-.2016573-.2604178-.464414-.24-.73z" fill="#062346" data-original="#000000" style="" class=""/><path id="Shape" d="m41 23v-4.3c-.5496232-.387148-1.0127558-.8843345-1.36-1.46-.1918487-.3150917-.4275428-.6012917-.7-.85-.3895304-.0296511-.7812911.0041214-1.16.1l-.37.06-1.83 5 1.72-.43c.5826471-.1445392 1.1994052-.0197191 1.68.34z" fill="#062346" data-original="#000000" style="" class=""/><path id="Shape" d="m8 40v1h20.78l-.63-3.14c-1.2689589-.3748779-2.1424672-1.5368471-2.15-2.86v-1c0-1.6568542 1.3431458-3 3-3h6v-7.51c-.3471369-.1079454-.6582876-.3084647-.9-.58-.4887908-.543482-.64216-1.3103279-.4-2l1.64-4.52c-.1475077-.0842724-.2850432-.1849081-.41-.3-.77-.77-.57-1.92-.42-2.85.0897307-.3797199.1234209-.7705256.1-1.16-.2487083-.2724572-.5349083-.5081513-.85-.7-.76-.57-1.76-1.25-1.76-2.38s1-1.81 1.76-2.36c.3179817-.19179629.6046508-.43124931.85-.71.0234209-.38947439-.0102693-.78028005-.1-1.16 0-.24-.08-.5-.11-.77h-30.4v37h2v-1c-.00942626-4.9273736 2.58862888-9.4920386 6.83-12-1.1723965-2.6628313-1.1101902-5.7072816.17-8.32v-2.41l-4-1.34v3.66l1.71 1.7c.1893127.1877666.2957983.4433625.2957983.71s-.1064856.5222334-.2957983.71c-.1877666.1893127-.4433625.2957983-.71.2957983-.26663754 0-.5222334-.1064856-.71-.2957983l-1.29-1.3-1.29 1.3c-.1877666.1893127-.44336246.2957983-.71.2957983s-.5222334-.1064856-.71-.2957983c-.18931265-.1877666-.29579832-.4433625-.29579832-.71s.10648567-.5222334.29579832-.71l1.71-1.7v-5.77s0-.08 0-.12c.03182579-.6814362.4087874-1.2996533 1-1.64l11-5.82c.5902613-.31645155 1.2997387-.31645155 1.89 0l11 5.82c.6938466.3729401 1.1041588 1.1184243 1.0480359 1.9041454-.056123.7857211-.5682267 1.4653184-1.3080359 1.7358546l-4.63 1.57v2.41c.6617298 1.3437176 1.0039678 2.8221858 1 4.32 0 5-3.59 9-8 9-2.4695586-.0376784-4.7698669-1.2622762-6.18-3.29-3.6225436 2.1600683-5.83532699 6.0723606-5.82 10.29z" fill="#062346" data-original="#000000" style="" class=""/><path id="Shape" d="m55 33h-6l-3.57 3h9.57c.5522847 0 1-.4477153 1-1v-1c0-.5522847-.4477153-1-1-1z" fill="#062346" data-original="#000000" style="" class=""/><path id="Shape" d="m37.78 23.08-.78.2v7.72h2v-7z" fill="#062346" data-original="#000000" style="" class=""/></g></g></g></svg>
